<?xml version="1.0" encoding="utf-8"?>
<!-- Generator: Adobe Illustrator 26.0.3, SVG Export Plug-In . SVG Version: 6.00 Build 0)  -->
<svg version="1.1" id="Layer_1" xmlns="http://www.w3.org/2000/svg" xmlns:xlink="http://www.w3.org/1999/xlink" x="0px" y="0px"
	 viewBox="0 0 334.15 47.64" style="enable-background:new 0 0 334.15 47.64;" xml:space="preserve">
<style type="text/css">
	.st0{fill:#001A33;}
	.st1{fill:#263144;}
	.st2{fill:#E84C88;}
	.st3{fill:#FFFFFF;}
	.st4{fill:#71BE4C;}
	.st5{fill:#FBB935;}
	.st6{fill:#5DC7D9;}
	.st7{fill:#1C8DCD;}
	.st8{fill:#6759A5;}
	.st9{fill:#008CFF;}
	.st10{fill:#018FFF;}
</style>
<g>
	<path class="st0" d="M3.71,10.26C2.73,9.35,2.24,8.23,2.24,6.88c0-1.35,0.49-2.47,1.47-3.38c0.98-0.91,2.26-1.36,3.82-1.36
		c1.56,0,2.84,0.44,3.82,1.31s1.47,1.96,1.47,3.27c0,1.42-0.49,2.59-1.47,3.52c-0.98,0.93-2.26,1.39-3.82,1.39
		C5.97,11.63,4.69,11.17,3.71,10.26z M3.28,15.72h8.51v29.35H3.28V15.72z"/>
	<path class="st2" d="M43.71,45.07l-7.91-11.84l-7.8,11.84H15.66l13.91-19.32L16.26,6.88h12.17l7.64,11.02L43.6,6.88h11.68
		L41.96,25.32l14.19,19.75H43.71z"/>
	<path class="st0" d="M60.35,10.26c-0.98-0.91-1.47-2.04-1.47-3.38c0-1.35,0.49-2.47,1.47-3.38c0.98-0.91,2.25-1.36,3.82-1.36
		c1.56,0,2.84,0.44,3.82,1.31s1.47,1.96,1.47,3.27c0,1.42-0.49,2.59-1.47,3.52c-0.98,0.93-2.26,1.39-3.82,1.39
		C62.6,11.63,61.33,11.17,60.35,10.26z M59.91,15.72h8.51v29.35h-8.51V15.72z"/>
	<path class="st0" d="M98.65,18.53c2.44,2.17,3.66,5.43,3.66,9.79v16.75h-7.97v-3.66c-1.6,2.73-4.58,4.09-8.95,4.09
		c-2.26,0-4.21-0.38-5.87-1.15c-1.66-0.76-2.92-1.82-3.79-3.17c-0.87-1.35-1.31-2.87-1.31-4.58c0-2.73,1.03-4.87,3.08-6.44
		c2.05-1.56,5.23-2.35,9.52-2.35h6.77c0-1.85-0.56-3.28-1.69-4.28c-1.13-1-2.82-1.5-5.07-1.5c-1.56,0-3.1,0.25-4.61,0.74
		c-1.51,0.49-2.79,1.16-3.85,1.99l-3.06-5.95c1.6-1.13,3.52-2,5.76-2.62c2.24-0.62,4.54-0.93,6.9-0.93
		C92.72,15.28,96.21,16.36,98.65,18.53z M91.39,38.77c1.13-0.67,1.93-1.66,2.4-2.97v-3h-5.84c-3.49,0-5.24,1.15-5.24,3.44
		c0,1.09,0.43,1.96,1.28,2.59c0.85,0.64,2.03,0.95,3.52,0.95C88.97,39.78,90.27,39.44,91.39,38.77z"/>
	<path class="st0" d="M118.51,14.08h-12.22v-7.2h33.28v7.2h-12.22v30.99h-8.84V14.08z"/>
	<path class="st0" d="M170.37,18.56c2.24,2.18,3.36,5.42,3.36,9.71v16.81h-8.51v-15.5c0-2.33-0.51-4.06-1.53-5.21
		c-1.02-1.15-2.49-1.72-4.42-1.72c-2.15,0-3.86,0.66-5.13,1.99c-1.27,1.33-1.91,3.3-1.91,5.92v14.51h-8.51V4.59h8.51v14.19
		c1.13-1.13,2.49-1.99,4.09-2.59s3.35-0.9,5.24-0.9C165.2,15.28,168.14,16.37,170.37,18.56z"/>
	<path class="st0" d="M210.34,32.8h-22.21c0.4,1.82,1.35,3.26,2.84,4.31s3.35,1.58,5.57,1.58c1.53,0,2.88-0.23,4.07-0.68
		c1.18-0.45,2.28-1.17,3.3-2.15l4.53,4.91c-2.77,3.17-6.8,4.75-12.11,4.75c-3.31,0-6.24-0.65-8.79-1.94
		c-2.55-1.29-4.51-3.08-5.89-5.37c-1.38-2.29-2.07-4.89-2.07-7.8c0-2.87,0.68-5.46,2.05-7.78c1.36-2.31,3.24-4.11,5.62-5.4
		c2.38-1.29,5.05-1.94,7.99-1.94c2.87,0,5.47,0.62,7.8,1.85c2.33,1.24,4.16,3.01,5.48,5.32c1.33,2.31,1.99,4.99,1.99,8.05
		C210.5,30.61,210.45,31.38,210.34,32.8z M190.42,23.36c-1.31,1.09-2.11,2.58-2.4,4.47h14.46c-0.29-1.85-1.09-3.34-2.4-4.45
		s-2.91-1.67-4.8-1.67C193.35,21.72,191.73,22.27,190.42,23.36z"/>
	<path class="st0" d="M262.53,18.53c2.16,2.17,3.25,5.41,3.25,9.74v16.81h-8.51v-15.5c0-2.33-0.48-4.06-1.45-5.21
		c-0.96-1.15-2.34-1.72-4.12-1.72c-2,0-3.58,0.65-4.75,1.94s-1.75,3.21-1.75,5.76v14.73h-8.51v-15.5c0-4.62-1.86-6.93-5.57-6.93
		c-1.96,0-3.53,0.65-4.69,1.94c-1.17,1.29-1.75,3.21-1.75,5.76v14.73h-8.51V15.72h8.13v3.38c1.09-1.24,2.43-2.18,4.01-2.84
		c1.58-0.65,3.32-0.98,5.21-0.98c2.07,0,3.95,0.41,5.62,1.23s3.02,2.01,4.04,3.57c1.2-1.53,2.72-2.71,4.56-3.55
		c1.84-0.84,3.85-1.25,6.03-1.25C257.45,15.28,260.37,16.36,262.53,18.53z"/>
	<path class="st0" d="M302.33,32.8h-22.21c0.4,1.82,1.35,3.26,2.84,4.31s3.35,1.58,5.57,1.58c1.53,0,2.88-0.23,4.07-0.68
		c1.18-0.45,2.28-1.17,3.3-2.15l4.53,4.91c-2.77,3.17-6.8,4.75-12.11,4.75c-3.31,0-6.24-0.65-8.79-1.94
		c-2.55-1.29-4.51-3.08-5.89-5.37c-1.38-2.29-2.07-4.89-2.07-7.8c0-2.87,0.68-5.46,2.05-7.78c1.36-2.31,3.24-4.11,5.62-5.4
		c2.38-1.29,5.05-1.94,7.99-1.94c2.87,0,5.47,0.62,7.8,1.85c2.33,1.24,4.16,3.01,5.48,5.32c1.33,2.31,1.99,4.99,1.99,8.05
		C302.5,30.61,302.44,31.38,302.33,32.8z M282.42,23.36c-1.31,1.09-2.11,2.58-2.4,4.47h14.46c-0.29-1.85-1.09-3.34-2.4-4.45
		s-2.91-1.67-4.8-1.67C285.35,21.72,283.73,22.27,282.42,23.36z"/>
	<path class="st0" d="M310.9,44.61c-2.33-0.6-4.18-1.35-5.57-2.26l2.84-6.11c1.31,0.84,2.89,1.52,4.75,2.05
		c1.85,0.53,3.67,0.79,5.46,0.79c3.6,0,5.4-0.89,5.4-2.67c0-0.84-0.49-1.44-1.47-1.8c-0.98-0.36-2.49-0.67-4.53-0.93
		c-2.4-0.36-4.38-0.78-5.95-1.25c-1.56-0.47-2.92-1.31-4.06-2.51c-1.15-1.2-1.72-2.91-1.72-5.13c0-1.85,0.54-3.5,1.61-4.94
		c1.07-1.44,2.64-2.56,4.69-3.36c2.05-0.8,4.48-1.2,7.28-1.2c2.07,0,4.14,0.23,6.19,0.68c2.05,0.46,3.75,1.08,5.1,1.88l-2.84,6.06
		c-2.58-1.45-5.4-2.18-8.46-2.18c-1.82,0-3.18,0.25-4.09,0.76c-0.91,0.51-1.36,1.16-1.36,1.96c0,0.91,0.49,1.55,1.47,1.91
		c0.98,0.36,2.55,0.71,4.69,1.04c2.4,0.4,4.37,0.83,5.89,1.28c1.53,0.46,2.85,1.28,3.98,2.48c1.13,1.2,1.69,2.87,1.69,5.02
		c0,1.82-0.55,3.44-1.64,4.86c-1.09,1.42-2.68,2.52-4.77,3.3c-2.09,0.78-4.57,1.17-7.45,1.17C315.61,45.51,313.23,45.21,310.9,44.61
		z"/>
</g>
</svg>
