<?xml version="1.0" encoding="UTF-8"?>
<svg width="65px" height="65px" viewBox="0 0 65 65" version="1.1" xmlns="http://www.w3.org/2000/svg" xmlns:xlink="http://www.w3.org/1999/xlink">
    <!-- Generator: Sketch 54.1 (76490) - https://sketchapp.com -->
    <title>font-preloader</title>
    <desc>Created with Sketch.</desc>
    <g id="font-preloader" stroke="none" stroke-width="1" fill="none" fill-rule="evenodd">
        <g id="Group" transform="translate(0.000000, 8.000000)" fill-rule="nonzero">
            <path d="M0.948275862,45.4285714 C0.424557565,45.4285714 0,45.8523019 0,46.375 L0,52.0535714 C0,52.5762695 0.424557565,53 0.948275862,53 L54.0517241,53 C54.5754424,53 55,52.5762695 55,52.0535714 L55,46.375 C55,45.8523019 54.5754424,45.4285714 54.0517241,45.4285714 L52.1551724,45.4285714 L52.1551724,31.2321429 L54.0517241,31.2321429 C54.5754424,31.2321429 55,30.8084124 55,30.2857143 L55,24.6071429 C55,24.0844448 54.5754424,23.6607143 54.0517241,23.6607143 L52.1551724,23.6607143 L52.1551724,7.57142857 L54.0517241,7.57142857 C54.5754424,7.57142857 55,7.14769807 55,6.625 L55,0.946428571 C55,0.423730505 54.5754424,0 54.0517241,0 L48.362069,0 C47.8383507,0 47.4137931,0.423730505 47.4137931,0.946428571 L47.4137931,2.83928571 L31.2931034,2.83928571 L31.2931034,0.946428571 C31.2931034,0.423730505 30.8685459,0 30.3448276,0 L24.6551724,0 C24.1314541,0 23.7068966,0.423730505 23.7068966,0.946428571 L23.7068966,2.83928571 L7.5862069,2.83928571 L7.5862069,0.946428571 C7.5862069,0.423730505 7.16164933,0 6.63793103,0 L0.948275862,0 C0.424557565,0 0,0.423730505 0,0.946428571 L0,6.625 C0,7.14769807 0.424557565,7.57142857 0.948275862,7.57142857 L2.84482759,7.57142857 L2.84482759,23.6607143 L0.948275862,23.6607143 C0.424557565,23.6607143 0,24.0844448 0,24.6071429 L0,30.2857143 C0,30.8084124 0.424557565,31.2321429 0.948275862,31.2321429 L2.84482759,31.2321429 L2.84482759,45.4285714 L0.948275862,45.4285714 Z M53.1034483,51.1071429 L51.2068966,51.1071429 L51.2068966,49.2142857 L49.3103448,49.2142857 L49.3103448,51.1071429 L47.4137931,51.1071429 L47.4137931,49.2142857 L45.5172414,49.2142857 L45.5172414,51.1071429 L43.6206897,51.1071429 L43.6206897,49.2142857 L41.7241379,49.2142857 L41.7241379,51.1071429 L39.8275862,51.1071429 L39.8275862,49.2142857 L37.9310345,49.2142857 L37.9310345,51.1071429 L36.0344828,51.1071429 L36.0344828,49.2142857 L34.137931,49.2142857 L34.137931,51.1071429 L32.2413793,51.1071429 L32.2413793,49.2142857 L30.3448276,49.2142857 L30.3448276,51.1071429 L28.4482759,51.1071429 L28.4482759,49.2142857 L26.5517241,49.2142857 L26.5517241,51.1071429 L24.6551724,51.1071429 L24.6551724,49.2142857 L22.7586207,49.2142857 L22.7586207,51.1071429 L20.862069,51.1071429 L20.862069,49.2142857 L18.9655172,49.2142857 L18.9655172,51.1071429 L17.0689655,51.1071429 L17.0689655,49.2142857 L15.1724138,49.2142857 L15.1724138,51.1071429 L13.2758621,51.1071429 L13.2758621,49.2142857 L11.3793103,49.2142857 L11.3793103,51.1071429 L9.48275862,51.1071429 L9.48275862,49.2142857 L7.5862069,49.2142857 L7.5862069,51.1071429 L5.68965517,51.1071429 L5.68965517,49.2142857 L3.79310345,49.2142857 L3.79310345,51.1071429 L1.89655172,51.1071429 L1.89655172,47.3214286 L53.1034483,47.3214286 L53.1034483,51.1071429 Z M53.1034483,29.3392857 L49.3103448,29.3392857 L49.3103448,25.5535714 L53.1034483,25.5535714 L53.1034483,29.3392857 Z M49.3103448,1.89285714 L53.1034483,1.89285714 L53.1034483,5.67857143 L49.3103448,5.67857143 L49.3103448,1.89285714 Z M25.6034483,1.89285714 L29.3965517,1.89285714 L29.3965517,5.67857143 L25.6034483,5.67857143 L25.6034483,1.89285714 Z M1.89655172,1.89285714 L5.68965517,1.89285714 L5.68965517,5.67857143 L1.89655172,5.67857143 L1.89655172,1.89285714 Z M1.89655172,25.5535714 L5.68965517,25.5535714 L5.68965517,29.3392857 L1.89655172,29.3392857 L1.89655172,25.5535714 Z M4.74137931,31.2321429 L6.63793103,31.2321429 C7.16164933,31.2321429 7.5862069,30.8084124 7.5862069,30.2857143 L7.5862069,24.6071429 C7.5862069,24.0844448 7.16164933,23.6607143 6.63793103,23.6607143 L4.74137931,23.6607143 L4.74137931,7.57142857 L6.63793103,7.57142857 C7.16164933,7.57142857 7.5862069,7.14769807 7.5862069,6.625 L7.5862069,4.73214286 L23.7068966,4.73214286 L23.7068966,6.625 C23.7068966,7.14769807 24.1314541,7.57142857 24.6551724,7.57142857 L30.3448276,7.57142857 C30.8685459,7.57142857 31.2931034,7.14769807 31.2931034,6.625 L31.2931034,4.73214286 L47.4137931,4.73214286 L47.4137931,6.625 C47.4137931,7.14769807 47.8383507,7.57142857 48.362069,7.57142857 L50.2586207,7.57142857 L50.2586207,23.6607143 L48.362069,23.6607143 C47.8383507,23.6607143 47.4137931,24.0844448 47.4137931,24.6071429 L47.4137931,30.2857143 C47.4137931,30.8084124 47.8383507,31.2321429 48.362069,31.2321429 L50.2586207,31.2321429 L50.2586207,45.4285714 L4.74137931,45.4285714 L4.74137931,31.2321429 Z" id="Shape" fill="#000000"></path>
            <rect id="Rectangle" fill="#000000" x="29" y="28" width="2" height="2"></rect>
            <path d="M40.0666667,11 L13.9333333,11 C13.4178676,11 13,11.4213791 13,11.9411765 L13,23.2352941 C13,23.7550915 13.4178676,24.1764706 13.9333333,24.1764706 L17.6666667,24.1764706 C18.1821324,24.1764706 18.6,23.7550915 18.6,23.2352941 L18.6,18.5294118 L23.2666667,18.5294118 L23.2666667,37.3529412 L18.6,37.3529412 C18.0845342,37.3529412 17.6666667,37.7743202 17.6666667,38.2941176 L17.6666667,42.0588235 C17.6666667,42.5786209 18.0845342,43 18.6,43 L35.4,43 C35.9154658,43 36.3333333,42.5786209 36.3333333,42.0588235 L36.3333333,38.2941176 C36.3333333,37.7743202 35.9154658,37.3529412 35.4,37.3529412 L30.7333333,37.3529412 L30.7333333,31.7058824 L28.8666667,31.7058824 L28.8666667,38.2941176 C28.8666667,38.8139151 29.2845342,39.2352941 29.8,39.2352941 L34.4666667,39.2352941 L34.4666667,41.1176471 L19.5333333,41.1176471 L19.5333333,39.2352941 L24.2,39.2352941 C24.7154658,39.2352941 25.1333333,38.8139151 25.1333333,38.2941176 L25.1333333,17.5882353 C25.1333333,17.0684379 24.7154658,16.6470588 24.2,16.6470588 L17.6666667,16.6470588 C17.1512009,16.6470588 16.7333333,17.0684379 16.7333333,17.5882353 L16.7333333,22.2941176 L14.8666667,22.2941176 L14.8666667,12.8823529 L39.1333333,12.8823529 L39.1333333,22.2941176 L37.2666667,22.2941176 L37.2666667,17.5882353 C37.2666667,17.0684379 36.8487991,16.6470588 36.3333333,16.6470588 L29.8,16.6470588 C29.2845342,16.6470588 28.8666667,17.0684379 28.8666667,17.5882353 L28.8666667,26.0588235 L30.7333333,26.0588235 L30.7333333,18.5294118 L35.4,18.5294118 L35.4,23.2352941 C35.4,23.7550915 35.8178676,24.1764706 36.3333333,24.1764706 L40.0666667,24.1764706 C40.5821324,24.1764706 41,23.7550915 41,23.2352941 L41,11.9411765 C41,11.4213791 40.5821324,11 40.0666667,11 Z" id="Path" fill="#E83131"></path>
            <rect id="Rectangle" fill="#000000" x="9" y="55" width="34" height="2"></rect>
            <rect id="Rectangle" fill="#000000" x="44" y="55" width="2" height="2"></rect>
        </g>
    </g>
</svg>