<?xml version="1.0" encoding="UTF-8"?>
<svg width="65px" height="65px" viewBox="0 0 65 65" version="1.1" xmlns="http://www.w3.org/2000/svg" xmlns:xlink="http://www.w3.org/1999/xlink">
    <!-- Generator: Sketch 54.1 (76490) - https://sketchapp.com -->
    <title>future</title>
    <desc>Created with Sketch.</desc>
    <g id="future" stroke="none" stroke-width="1" fill="none" fill-rule="evenodd">
        <g id="Group" transform="translate(0.000000, 2.000000)" fill-rule="nonzero">
            <path d="M45,19 C48.3083117,19 51,16.3083117 51,13 C51,9.69168828 48.3083117,7 45,7 C41.6916883,7 39,9.69168828 39,13 C39,16.3083117 41.6916883,19 45,19 Z M45,8.63777808 C47.4050771,8.63777808 49.3622219,10.5949229 49.3622219,13 C49.3622219,15.4050771 47.4050771,17.3622219 45,17.3622219 C42.5949229,17.3622219 40.6377781,15.4050771 40.6377781,13 C40.6377781,10.5949229 42.5949229,8.63777808 45,8.63777808 Z" id="Shape" fill="#E83131" transform="translate(45.000000, 13.000000) scale(-1, 1) translate(-45.000000, -13.000000) "></path>
            <circle id="Oval" fill="#000000" transform="translate(34.500000, 10.500000) scale(-1, 1) translate(-34.500000, -10.500000) " cx="34.5" cy="10.5" r="1.5"></circle>
            <circle id="Oval" fill="#E83131" transform="translate(42.500000, 46.500000) scale(-1, 1) translate(-42.500000, -46.500000) " cx="42.5" cy="46.5" r="1.5"></circle>
            <circle id="Oval" fill="#E83131" transform="translate(25.500000, 31.500000) scale(-1, 1) translate(-25.500000, -31.500000) " cx="25.5" cy="31.5" r="1.5"></circle>
            <path d="M8.12967798,58 L2.87032202,58 C2.38990426,58 2,58.224 2,58.5 C2,58.776 2.38990426,59 2.87032202,59 L8.12967798,59 C8.61009574,59 9,58.776 9,58.5 C9,58.224 8.61009574,58 8.12967798,58 Z" id="Path" fill="#000000" transform="translate(5.500000, 58.500000) scale(-1, 1) translate(-5.500000, -58.500000) "></path>
            <path d="M52.4681861,58.3011977 L42.5257993,58.3011977 C49.5584046,55.3792576 54.7946608,48.956086 56.0929619,41.2027521 L60.155851,41.2027521 C60.6218213,41.2027521 61,40.8222203 61,40.3533509 C61,39.8844814 60.6218213,39.5039497 60.155851,39.5039497 L56.3107523,39.5039497 C56.359713,38.9577848 56.3875699,38.4048246 56.3976997,37.8484668 L58.7630052,37.8484668 C59.2289754,37.8484668 59.6071542,37.4679351 59.6071542,36.9990657 C59.6071542,36.5301962 59.2289754,36.1496645 58.7630052,36.1496645 L56.3715311,36.1496645 C55.736731,24.9859849 46.9964124,15.9746878 35.9946186,14.9944789 L36.4715627,13.9862397 L39.2732932,13.9862397 C39.7392635,13.9862397 40.1174422,13.605708 40.1174422,13.1368385 C40.1174422,12.6679691 39.7392635,12.2874374 39.2732932,12.2874374 L37.2751926,12.2874374 L37.8584995,11.0541069 L44.818508,11.0541069 C45.2844782,11.0541069 45.662657,10.6735751 45.662657,10.2047057 C45.662657,9.73583624 45.2844782,9.35530451 44.818508,9.35530451 L37.8196687,9.35530451 C36.0283845,5.93391659 33.2502902,3.28973074 29.9243431,1.69965175 L32.7142556,1.69965175 C33.1802258,1.69965175 33.5584046,1.31912002 33.5584046,0.850250573 C33.5584046,0.381381126 33.1802258,0.000849401172 32.7142556,0.000849401172 L22.6621294,0.000849401172 C22.6511554,0.000849401172 22.6418698,0.00679520938 22.6308959,0.00764461055 C22.5599873,0.00679520938 22.489923,0 22.4181703,0 C12.8134431,0 5,7.86205725 5,17.5265438 C5,21.1798182 6.10667933,24.6802005 8.19932468,27.6514058 L8.46438746,28.0285399 L13.7436953,27.804298 C12.3339664,30.8035335 11.5919595,34.1102523 11.5919595,37.4500977 C11.5919595,46.8487217 17.3380817,54.9188822 25.4790546,58.3011977 L10.0522317,58.3011977 C9.58626148,58.3011977 9.20808273,58.6817294 9.20808273,59.1505988 C9.20808273,59.6194683 9.58626148,60 10.0522317,60 L52.4681861,60 C52.9341564,60 53.3123351,59.6194683 53.3123351,59.1505988 C53.3123351,58.6817294 52.9341564,58.3011977 52.4681861,58.3011977 Z M54.6756357,36.1496645 L53.0903239,36.1496645 C52.6243537,36.1496645 52.2461749,36.5301962 52.2461749,36.9990657 C52.2461749,37.4679351 52.6243537,37.8484668 53.0903239,37.8484668 L54.7060251,37.8484668 C54.6604411,40.2684108 54.2138863,42.5923724 53.4119447,44.7456043 C52.5222117,43.6125032 51.4501425,42.6467341 50.2430094,41.8729296 L51.815659,32.9873439 C52.6606521,33.485093 53.55545,33.9607577 54.5008969,34.4100909 C54.5853118,34.9825873 54.6393373,35.5635777 54.6756357,36.1496645 Z M54.0847315,32.3052748 C45.3748022,27.7320989 41.57782,20.6446955 40.2820513,17.5809055 C47.0495938,19.7511255 52.3187718,25.3308418 54.0847315,32.3052748 Z M50.2717105,32.0258218 L48.6813338,41.0124862 C45.4955155,39.5166907 41.6774296,39.1922195 38.0391474,40.3423087 C36.2191622,40.9182027 34.5595653,41.8126221 33.1270444,42.9652595 L28.954416,38.1635947 C31.776406,35.5474391 33.5575604,31.8109233 33.5575604,27.6548034 C33.5575604,25.5805657 33.10172,23.5657861 32.26348,21.719188 L39.8253667,20.592882 C41.5330801,23.8010702 44.7155218,28.3351737 50.2717105,32.0258218 Z M38.2560937,17.0432345 C38.4004432,17.4670857 38.6519996,18.1406608 39.0377757,18.9934596 L31.4311491,20.1265608 C31.1399177,19.6534443 30.8123879,19.2007135 30.4645985,18.7607237 L34.1155429,16.6023953 C35.5337132,16.6100399 36.9181175,16.7612333 38.2560937,17.0432345 Z M9.3178221,26.2923639 C7.59575815,23.6931963 6.68745384,20.6727257 6.68745384,17.5273932 C6.68745384,8.79979614 13.7436953,1.69965175 22.4173262,1.69965175 C28.3440962,1.69965175 33.65717,4.95710524 36.3795505,10.2284889 L35.4054026,12.2891362 L33.600612,12.2891362 C33.1346418,12.2891362 32.756463,12.6696679 32.756463,13.1385373 C32.756463,13.6074068 33.1346418,13.9879385 33.600612,13.9879385 L34.6017727,13.9879385 L34.3662551,14.4848382 L14.7862193,26.059628 L9.3178221,26.2923639 Z M23.6691991,27.6556528 C23.6691991,30.0577593 21.7268123,32.0122314 19.3395589,32.0122314 C18.2109317,32.0122314 17.1430833,31.577338 16.3318561,30.7890937 C15.7797826,30.2522721 15.3788119,29.578697 15.1719954,28.8422662 L15.1255672,28.8558566 C15.339981,28.3793426 15.5653688,27.9079249 15.8152369,27.4492483 C15.8211459,27.4390555 15.8203018,27.4280133 15.8253667,27.4178204 L21.6499947,23.9743481 C22.8934262,24.7625924 23.6691991,26.1403211 23.6691991,27.6556528 Z M13.2802575,37.4500977 C13.2802575,35.2399558 13.6322676,33.0451032 14.3092751,30.9598233 C14.5549224,31.3369574 14.8326475,31.6937059 15.158489,32.0105326 C16.286272,33.1071095 17.7711301,33.7110337 19.3395589,33.7110337 C22.6579086,33.7110337 25.3574971,30.9946488 25.3574971,27.6556528 C25.3574971,25.8421813 24.558088,24.168861 23.2310858,23.0374586 L28.9898702,19.6330587 C30.8444655,21.8899176 31.8701066,24.7073813 31.8701066,27.6556528 C31.8701066,34.6088508 26.2489184,40.2650132 19.3387148,40.2650132 C17.2274982,40.2650132 15.1576448,39.7239446 13.3207766,38.7097596 C13.2962963,38.2927036 13.2802575,37.8730995 13.2802575,37.4500977 Z M13.5351905,40.7126476 C15.3526432,41.5306209 17.328796,41.9629661 19.3387148,41.9629661 C22.4418065,41.9629661 25.3076923,40.9453835 27.6485175,39.2414848 L31.8793922,44.1102523 C31.0208927,44.9842861 30.2653793,45.9585492 29.6533713,47.0321923 C27.8308536,50.2301877 27.4096233,53.8545825 28.4664978,57.2377474 C28.5019521,57.3507177 28.5458478,57.4611399 28.5846787,57.5732609 C20.7948718,55.4480591 14.813232,48.8584048 13.5351905,40.7126476 Z M34.0024269,58.3011977 C32.8341247,58.3011977 31.6903028,58.1984201 30.5743379,58.0107025 C30.3835602,57.5953453 30.2147304,57.1672471 30.0779783,56.7289561 C29.1637649,53.802769 29.5335022,50.6591353 31.1179698,47.8773465 C32.7159439,45.0734732 35.3539095,42.9729041 38.5456368,41.9638155 C43.9532552,40.2522721 49.7922338,42.1906056 52.6361718,46.5633229 C51.3902079,49.1327614 49.6318455,51.4049095 47.4995252,53.2515077 C47.8397172,52.2024972 47.8219901,51.1297036 47.4336815,50.146097 C46.3877809,47.4959653 42.9259259,46.3832498 39.7173156,47.666695 C38.1961591,48.2748662 36.9476628,49.3281237 36.2014351,50.6319545 C35.4189089,52.0003398 35.2745595,53.4799966 35.7953994,54.7982672 C36.3162393,56.1173872 37.430516,57.0941986 38.932257,57.5486282 C39.0377757,57.5809055 39.1483592,57.5936465 39.2555661,57.6199779 C37.5773979,58.0633653 35.8165031,58.3011977 34.0024269,58.3011977 Z M39.4184869,55.922025 C38.4198586,55.6196382 37.6905139,54.9978765 37.3638282,54.1714092 C37.0371426,53.3449418 37.1443495,52.3885161 37.6643453,51.4796568 C38.2214836,50.5062431 39.1719954,49.7129024 40.3402976,49.2457318 C41.0519152,48.9611824 41.776195,48.8261276 42.4599557,48.8261276 C44.0258521,48.8261276 45.3756463,49.5345282 45.8652527,50.7729551 C46.1919384,51.5994224 46.0847315,52.5558481 45.5647357,53.4647074 C45.0075973,54.4381211 44.0570856,55.2314618 42.8887834,55.6986325 C41.719637,56.1666525 40.4871795,56.2447974 39.4184869,55.922025 Z" id="Shape" fill="#000000" transform="translate(33.000000, 30.000000) scale(-1, 1) translate(-33.000000, -30.000000) "></path>
            <path d="M64.1992526,58 L59.8007474,58 C59.3587348,58 59,58.224 59,58.5 C59,58.776 59.3587348,59 59.8007474,59 L64.1992526,59 C64.6412652,59 65,58.776 65,58.5 C65,58.224 64.6420659,58 64.1992526,58 Z" id="Path" fill="#000000" transform="translate(62.000000, 58.500000) scale(-1, 1) translate(-62.000000, -58.500000) "></path>
            <path d="M50.1473727,61 L16.8475268,61.124707 C16.3782874,61.1265823 15.9983055,61.5475856 16.0000057,62.0651664 C16.0017058,62.5818097 16.3816877,63 16.8500771,63 C16.8509271,63 16.8517772,63 16.8526273,63 L50.1524732,62.875293 C50.6217126,62.8734177 51.0016945,62.4524144 50.9999943,61.9348336 C50.9991442,61.416315 50.6565655,61.0131271 50.1473727,61 Z" id="Path" fill="#000000" transform="translate(33.500000, 62.000000) scale(-1, 1) translate(-33.500000, -62.000000) "></path>
            <path d="M16.7909307,10 L18.2090693,10 C18.6456631,10 19,9.776 19,9.5 C19,9.224 18.6456631,9 18.2090693,9 L16.7909307,9 C16.3543369,9 16,9.224 16,9.5 C16,9.776 16.3543369,10 16.7909307,10 Z" id="Path" fill="#000000" transform="translate(17.500000, 9.500000) scale(-1, 1) translate(-17.500000, -9.500000) "></path>
            <path d="M2.20886076,39 L0.791139241,39 C0.35443038,39 0,39.224 0,39.5 C0,39.776 0.35443038,40 0.791139241,40 L2.20886076,40 C2.64556962,40 3,39.776 3,39.5 C3,39.224 2.64556962,39 2.20886076,39 Z" id="Path" fill="#000000" transform="translate(1.500000, 39.500000) scale(-1, 1) translate(-1.500000, -39.500000) "></path>
            <path d="M27.7496252,1 L29.2503748,1 C29.6641679,1 30,0.776 30,0.5 C30,0.224 29.6641679,0 29.2503748,0 L27.7496252,0 C27.3358321,0 27,0.224 27,0.5 C27,0.776 27.3350825,1 27.7496252,1 Z" id="Path" fill="#000000" transform="translate(28.500000, 0.500000) scale(-1, 1) translate(-28.500000, -0.500000) "></path>
        </g>
    </g>
</svg>