<?xml version="1.0" encoding="UTF-8"?>
<svg width="65px" height="65px" viewBox="0 0 65 65" version="1.1" xmlns="http://www.w3.org/2000/svg" xmlns:xlink="http://www.w3.org/1999/xlink">
    <!-- Generator: Sketch 54.1 (76490) - https://sketchapp.com -->
    <title>modularity</title>
    <desc>Created with Sketch.</desc>
    <g id="modularity" stroke="none" stroke-width="1" fill="none" fill-rule="evenodd">
        <g id="Group" transform="translate(0.000000, 1.000000)" fill-rule="nonzero">
            <path d="M21.41,32.0862693 C21.1526271,31.9712436 20.8523729,31.9712436 20.595,32.0862693 L15.41,34.7304891 C15.1713792,34.8639648 15.018338,35.0965066 15,35.3534728 L15,40.6419125 C15.0175837,40.900307 15.1706091,41.1345472 15.41,41.2695109 L20.595,43.9137307 C20.8523729,44.0287564 21.1526271,44.0287564 21.41,43.9137307 L26.59,41.2695109 C26.8300146,41.1351203 26.9832566,40.9005485 27,40.6419125 L27,35.3534728 C26.9832566,35.0948368 26.8300146,34.860265 26.59,34.7258744 L21.41,32.0862693 Z M25,39.9681671 L21,42.007862 L17,39.9681671 L17,36.0272182 L21,33.9875233 L25,36.0272182 L25,39.9681671 Z" id="Shape" fill="#000000"></path>
            <path d="M58.045,19.0539549 L45.955,12.2231096 C45.3548316,11.9256301 44.6501684,11.9256301 44.05,12.2231096 L31.955,19.0539549 C31.3951508,19.4071152 31.0396634,20.0083542 31,20.6691547 L31,34.3308453 C31.0396634,34.9916458 31.3951508,35.5928848 31.955,35.9460451 L44.045,42.7768904 C44.6451684,43.0743699 45.3498316,43.0743699 45.95,42.7768904 L58.045,35.9460451 C58.6048492,35.5928848 58.9603366,34.9916458 59,34.3308453 L59,20.6691547 C58.9603366,20.0083542 58.6048492,19.4071152 58.045,19.0539549 Z M57,34.2308329 L57,34.2308329 L45.035,41.0016707 L44.965,41.0016707 L33,34.2508354 L33,34.2508354 L33,20.7691671 L33,20.7691671 L44.965,13.9983293 L45.03,13.9983293 L57,20.7541653 L57,20.7541653 L57,34.2308329 Z" id="Shape" fill="#000000"></path>
            <circle id="Oval" fill="#E83131" cx="38" cy="33" r="1"></circle>
            <path d="M6.49774661,20.133533 L4.49955565,21.2678499 C4.18920243,21.4470829 3.99858519,21.7788574 4.00000791,22.1373263 L4.00000791,25.0006019 C4.00000791,25.5525542 4.44731819,26 4.99910339,26 C5.55088859,26 5.99819887,25.5525542 5.99819887,25.0006019 L5.99819887,23.0018056 L6.19302249,22.6070434 L7.49684209,21.8724858 C7.97689519,21.5965096 8.14239997,20.9835089 7.86650738,20.5033104 C7.59061479,20.0231118 6.97779973,19.8575569 6.49774661,20.133533 L6.49774661,20.133533 Z" id="Path" fill="#E83131"></path>
            <path d="M32.8933248,4.5485605 C32.7733431,4.3116518 32.5640424,4.13214128 32.3115395,4.04958196 C32.0590367,3.96702265 31.784052,3.98818933 31.5471752,4.10841817 L29.5454658,5.10874165 C29.2108412,5.27962858 29.0001847,5.62345382 29,5.99902955 L29,7.99967652 C29,8.55213992 29.4480979,9 30.0008547,9 C30.5536115,9 31.0017094,8.55213992 31.0017094,7.99967652 L31.0017094,6.62423173 L32.4529487,5.88899397 C32.9436808,5.6393376 33.1404601,5.04037309 32.8933248,4.5485605 Z" id="Path" fill="#E83131"></path>
            <path d="M54.9823009,44.1737945 C54.9056955,44.5759597 54.676427,44.9337273 54.3416814,45.1734649 L40.8584071,52.5610296 L40.8584071,50.3117711 C40.8382399,49.9043166 40.6201796,49.5317712 40.2732743,49.3121006 L32.8683186,45.1334781 C32.5002308,44.9498835 32.0661409,44.9498835 31.6980531,45.1334781 L24.2930973,49.3220973 C23.9461921,49.5417679 23.7281317,49.9143133 23.7079646,50.3217678 L23.7079646,52.5710263 L10.2246903,45.18846 C9.88994464,44.9487224 9.66067622,44.5909548 9.5840708,44.1887896 L9.5840708,33.127436 L16.5653097,29.1837361 C16.912215,28.9640655 17.1302753,28.5915201 17.1504425,28.1840656 L17.1504425,19.8218223 C17.1302753,19.4143679 16.912215,19.0418224 16.5653097,18.8221518 L14.3357522,17.5625671 L25.3271681,11.5645444 C25.4079207,11.7386919 25.5374903,11.8861677 25.7004425,11.9894043 L31.7787611,15.3982805 C32.082284,15.5473918 32.4386895,15.5473918 32.7422124,15.3982805 L38.840708,11.9844059 C39.0036602,11.8811694 39.1332298,11.7336936 39.2139823,11.559546 L40.8584071,12.4442544 L42.9215044,11.289635 L39.3451327,9.33527925 L39.3451327,4.33692699 C39.32573,3.9999412 39.1360235,3.69541281 38.840708,3.52719392 L32.7876106,0.123316033 C32.4717961,-0.0411053442 32.0945755,-0.0411053442 31.7787611,0.123316033 L25.7256637,3.53719063 C25.4335676,3.70867953 25.2450346,4.0113241 25.2212389,4.34692369 L25.2212389,9.34527595 L12.2827434,16.4079477 L9.16035398,14.6435293 C8.79226615,14.4599347 8.35817633,14.4599347 7.9900885,14.6435293 L0.585132743,18.8321485 C0.238227519,19.0518191 0.0201671377,19.4243646 0,19.831819 L0,28.189064 C0.020995355,28.5962755 0.238851587,28.9684721 0.585132743,29.1887344 L7.56637168,33.127436 L7.56637168,44.1737945 C7.63965895,45.3122139 8.26840908,46.3437566 9.25115044,46.9378833 L23.7079646,54.8452766 L23.7079646,58.6790128 C23.72896,59.0862242 23.9468162,59.4584209 24.2930973,59.6786832 L31.7030973,63.862304 C32.0711852,64.0458987 32.505275,64.0458987 32.8733628,63.862304 L40.2783186,59.6786832 C40.6252238,59.4590126 40.8432842,59.0864672 40.8634513,58.6790128 L40.8634513,54.8452766 L55.3202655,46.9428816 C56.3024791,46.3466004 56.9294263,45.3130612 57,44.1737945 L57,39.6152972 L54.9823009,40.7449248 L54.9823009,44.1737945 Z M27.2389381,4.97671608 L32.2831858,2.15264705 L37.3274336,4.97671608 L37.3274336,10.5448805 L32.2831858,13.3689495 L27.2389381,10.5448805 L27.2389381,4.97671608 Z M2.01769912,20.3216575 L8.57522124,16.6178785 L15.1327434,20.3216575 L15.1327434,27.6892287 L8.57522124,31.3930078 L2.01769912,27.6892287 L2.01769912,20.3216575 Z M38.840708,58.1791775 L32.2831858,61.8829565 L25.7256637,58.1791775 L25.7256637,50.8116063 L32.2831858,47.1078273 L38.840708,50.8116063 L38.840708,58.1791775 Z" id="Shape" fill="#000000"></path>
            <path d="M30.4977466,50.133533 L28.4995556,51.2678499 C28.1892024,51.4470829 27.9985852,51.7788574 28.0000079,52.1373263 L28.0000079,55.0006019 C28.0000079,55.5525542 28.4473182,56 28.9991034,56 C29.5508886,56 29.9981989,55.5525542 29.9981989,55.0006019 L29.9981989,53.0018056 L30.1930225,52.6070434 L31.4968421,51.8724858 C31.9768952,51.5965096 32.1424,50.9835089 31.8665074,50.5033104 C31.5906148,50.0231118 30.9777997,49.8575569 30.4977466,50.133533 Z" id="Path" fill="#E83131"></path>
            <path d="M42.5287065,20.0894903 L37.5026097,23.0028687 C37.1919124,23.1821415 37.000368,23.5133135 37,23.8718592 L37,28.9953868 C37,29.5502193 37.450052,30 38.0052194,30 C38.5603867,30 39.0104387,29.5502193 39.0104387,28.9953868 L39.0104387,24.4746271 L43.5339259,21.8525865 C43.988539,21.5637643 44.1345246,20.9681283 43.8649378,20.5020244 C43.5953511,20.0359206 43.0060354,19.865058 42.5287065,20.1146056 L42.5287065,20.0894903 Z" id="Path" fill="#E83131"></path>
        </g>
    </g>
</svg>