<?xml version="1.0" encoding="UTF-8"?>
<svg width="65px" height="65px" viewBox="0 0 65 65" version="1.1" xmlns="http://www.w3.org/2000/svg" xmlns:xlink="http://www.w3.org/1999/xlink">
    <!-- Generator: Sketch 54.1 (76490) - https://sketchapp.com -->
    <title>seo-friendly</title>
    <desc>Created with Sketch.</desc>
    <g id="seo-friendly" stroke="none" stroke-width="1" fill="none" fill-rule="evenodd">
        <g id="Group" transform="translate(0.000000, 5.000000)" fill-rule="nonzero">
            <path d="M55,4 L53,4 C52.4477153,4 52,4.44771525 52,5 C52,5.55228475 52.4477153,6 53,6 L55,6 C55.5522847,6 56,5.55228475 56,5 C56,4.44771525 55.5522847,4 55,4 Z" id="Path" fill="#000000"></path>
            <path d="M49,4 L47,4 C46.4477153,4 46,4.44771525 46,5 C46,5.55228475 46.4477153,6 47,6 L49,6 C49.5522847,6 50,5.55228475 50,5 C50,4.44771525 49.5522847,4 49,4 Z" id="Path" fill="#000000"></path>
            <path d="M48.8878092,36 L51.9719523,36 C52.5397274,36 53,35.5408049 53,34.974359 C53,34.4079131 52.5397274,33.9487179 51.9719523,33.9487179 L50.9439046,33.9487179 L50.9439046,18.0512821 C50.9439046,16.9183903 50.0233593,16 48.8878092,16 L46.8317137,16 C46.0543109,16.0017661 45.3448644,16.4422899 45,17.1373846 C45.6739924,17.863973 46.2866484,18.644885 46.8317137,19.4721487 L46.8317137,18.0512821 L48.8878092,18.0512821 L48.8878092,23.7639231 C50.1793403,27.7706157 50.0133572,32.1033442 48.4190554,36 L48.8878092,36 Z" id="Path" fill="#000000"></path>
            <path d="M23.7542321,12 C22.7853965,12 22,12.8387705 22,13.8734464 L22,16 C22.5524144,15.485659 23.1386626,15.0142973 23.7542321,14.5895431 L23.7542321,13.8734464 L24.8951408,13.8734464 C25.5725511,13.4918417 26.2762085,13.1659268 27,12.898533 C26.6836827,12.3416022 26.1183894,12.0010574 25.5084642,12 L23.7542321,12 Z" id="Path" fill="#000000"></path>
            <path d="M43,15 L43,13.6738153 C43,12.7493926 42.1917972,12 41.1948285,12 L39.3896571,12 C38.8498218,12.001425 38.3393926,12.2282332 38,12.6174914 C38.9600451,12.8855997 39.889803,13.2393617 40.7762318,13.6738153 L41.1948285,13.6738153 L41.1948285,13.8895282 C41.8234819,14.2205955 42.4266492,14.5916408 43,15 L43,15 Z" id="Path" fill="#000000"></path>
            <path d="M20,18.8611486 C19.6061977,18.3209216 18.9795225,18.0011345 18.3124381,18 L16.208292,18 C15.0462043,18 14.104146,18.9451766 14.104146,20.1111111 L14.104146,34.8888889 L13.052073,34.8888889 C12.4710291,34.8888889 12,35.3614772 12,35.9444444 C12,36.5274117 12.4710291,37 13.052073,37 L17.5677545,37 C17.2903724,36.3112854 17.0550029,35.6062798 16.8629497,34.8888889 L16.208292,34.8888889 L16.208292,20.1111111 L18.3124381,20.1111111 L18.3124381,21.4952717 C18.7987078,20.5703475 19.3633059,19.6890638 20,18.8611486 L20,18.8611486 Z" id="Path" fill="#000000"></path>
            <path d="M7,50 L43.62622,50 L42.53842,48.9012727 C42.2685451,48.6284766 42.0385693,48.3181939 41.85544,47.979798 L8,47.979798 L8,10.1010101 L58,10.1010101 L58,44.5721263 L60,46.5924495 L60,3.03030303 C59.9981923,1.35746981 58.6561049,0.00182597137 57,0 L9,0 C7.34389511,0.00182597137 6.00180771,1.35746981 6,3.03030303 L6,48.989899 C6.00002761,49.5477508 6.44772669,49.9999721 7,50 Z M8,3.03030303 C8.00063098,2.47270386 8.44797682,2.02083938 9,2.02020202 L57,2.02020202 C57.5520232,2.02083938 57.999369,2.47270386 58,3.03030303 L58,8.08080808 L8,8.08080808 L8,3.03030303 Z" id="Shape" fill="#000000"></path>
            <path d="M49,54.9896474 L46.9422266,52.9844711 L4.11536156,52.9844711 C2.97893585,52.9844711 2.05768078,52.0867231 2.05768078,50.9792948 L2.05768078,11.8783569 C2.0593419,11.1648894 2.45155429,10.5065057 3.08652117,10.1513035 L3.08652117,8 C1.27194025,8.45779296 0.00339248464,10.051782 0,11.8783569 L0,50.9792948 C0.00257692408,53.1931104 1.84357838,54.9871362 4.11536156,54.9896474 L24.1777492,54.9896474 L24.1777492,56.9948237 L19.0335472,56.9948237 C18.4653344,56.9948237 18.0047068,57.4436977 18.0047068,57.9974118 C18.0047068,58.551126 18.4653344,59 19.0335472,59 L46.8122378,59 C47.3804506,59 47.8410782,58.551126 47.8410782,57.9974118 C47.8410782,57.4436977 47.3804506,56.9948237 46.8122378,56.9948237 L41.6680358,56.9948237 L41.6680358,54.9896474 L49,54.9896474 Z M39.610355,56.9948237 L26.23543,56.9948237 L26.23543,54.9896474 L39.610355,54.9896474 L39.610355,56.9948237 Z" id="Shape" fill="#000000"></path>
            <path d="M62,8 L62,10.1761871 C62.61717,10.5355151 62.9983869,11.2015332 63,11.9232717 L63,50.0888837 C63.7933149,50.9041693 64.3785421,51.9034299 64.704925,53 C64.899625,52.5165222 64.9998405,51.9992812 65,51.4770331 L65,11.9232717 C64.9966921,10.0755471 63.7637086,8.46310405 62,8 Z" id="Path" fill="#000000"></path>
            <path d="M41.9986472,21.934673 L41.9986472,34.0043874 L39.9972945,34.0043874 L39.9972945,20.1325101 C39.3705227,19.6881464 38.6999356,19.3086798 37.9959417,19 L37.9959417,34.0043874 L35.9945889,34.0043874 L35.9945889,23.5274213 C35.9945889,22.4252749 35.0985528,21.5318087 33.9932362,21.5318087 L31.9918834,21.5318087 C30.8865668,21.5318087 29.9905306,22.4252749 29.9905306,23.5274213 L29.9905306,34.0043874 L27.9891778,34.0043874 L27.9891778,19.4005394 C27.2745312,19.7889167 26.6035971,20.2524033 25.9878251,20.7830898 L25.9878251,34.0043874 L23.9864723,34.0043874 L23.9864723,23.0039123 C21.3011197,26.933818 21.3416173,32.1123297 24.088106,36 L42.7387125,36 C43.2458628,35.2918186 43.669108,34.5274873 44,33.7222627 L44,25.1435582 C43.5177793,23.9697354 42.8412498,22.8850164 41.9986472,21.934673 Z M33.9932362,34.0043874 L31.9918834,34.0043874 L31.9918834,23.5274213 L33.9932362,23.5274213 L33.9932362,34.0043874 Z" id="Shape" fill="#000000"></path>
            <path d="M50.717945,40.500896 C49.9224033,39.7043924 48.6329446,39.7008873 47.8330876,40.4930543 L45.8386327,38.4978796 C50.3367464,31.7598158 48.9908642,22.7071689 42.7272614,17.5702345 C36.4636586,12.4333 27.3260476,12.8881766 21.6031985,18.6218049 C15.8803495,24.3554332 15.4395356,33.4970231 20.5841379,39.7550658 C25.7287401,46.0131086 34.780158,47.345706 41.5089417,42.8357258 L43.5000452,44.827558 C42.7081801,45.6277272 42.7116976,46.9176516 43.5079148,47.7134872 L54.2967623,58.5062281 C56.2877544,60.49793 59.5157833,60.4979231 61.5067668,58.5062126 C63.4977503,56.5145021 63.4977435,53.2853083 61.5067516,51.2936062 L50.717945,40.500896 Z M32.7278527,43.4538174 C26.1766941,43.4538322 20.5378187,38.8244791 19.2597351,32.3968836 C17.9816515,25.9692881 21.4203234,19.5336236 27.472798,17.0256826 C33.5252726,14.5177415 40.5058528,16.6360199 44.1454976,22.0850643 C47.7851423,27.5341086 47.0701608,34.7962853 42.4378068,39.4303405 C39.8652594,42.0105404 36.3707372,43.4585487 32.7278527,43.4538072 L32.7278527,43.4538174 Z M43.1403373,41.5721631 C43.3940209,41.3485979 43.6438619,41.1193818 43.8850504,40.8780807 C44.1268989,40.6361448 44.3557919,40.386311 44.5786112,40.1329095 L46.384964,41.9398834 L44.9464701,43.3789272 L43.1403373,41.5721631 Z M60.0595438,57.0584622 C59.487273,57.6309444 58.7111043,57.952562 57.9017876,57.952562 C57.092471,57.952562 56.3163023,57.6309444 55.7440314,57.0584622 L44.9551635,46.2657265 L49.2707219,41.9486567 L60.0595387,52.7413669 C60.6318145,53.3138507 60.9533139,54.0903055 60.95331,54.8999188 C60.9533062,55.7095321 60.6317995,56.4859839 60.0595183,57.0584622 L60.0595438,57.0584622 Z" id="Shape" fill="#E83131"></path>
        </g>
    </g>
</svg>