<svg version="1.2" xmlns="http://www.w3.org/2000/svg" viewBox="0 0 65 65" width="65" height="65"><style>.a{fill:#e83131}</style><path fill-rule="evenodd" d="m0 5.9c0-3.3 2.6-5.9 5.9-5.9h53.2c3.3 0 5.9 2.6 5.9 5.9v53.2c0 3.3-2.6 5.9-5.9 5.9h-53.2c-3.3 0-5.9-2.6-5.9-5.9zm13.5 56.5l9.6-10.2-0.4-0.3-20.6-16.1v21.4c0 2.9 2 5.2 4.3 5.2zm3.3 0h41.8c2.3 0 4.3-2.3 4.3-5.2v-8.4l-16.3-14.3 1.6-1.9 14.7 12.9v-37.7c0-2.8-2-5.2-4.3-5.2h-52.1c-2.4 0-4.3 2.4-4.3 5.2v24.9l21.7 17.1c0.3 0.2 0.5 0.4 0.5 0.8l16.2-17.6 3.7 4.4-2.1-2.5z"/><path fill-rule="evenodd" d="m13.9 27.9c-4 0-7.3-4-7.3-9 0-4.9 3.3-9 7.3-9 4.1 0 7.4 4.1 7.4 9 0 5-3.3 9-7.4 9zm5.3-9c0-3.5-2.4-6.4-5.3-6.4-2.9 0-5.2 2.9-5.2 6.4 0 3.5 2.3 6.4 5.2 6.4 2.9 0 5.3-2.9 5.3-6.4z"/><path fill-rule="evenodd" class="a" d="m31.8 14.4l-1.1-0.1 0.1-3.3 2.9 0.1-0.2 3.4-1-0.1c0.1 7.3 4.6 13.5 10.6 14.7l0.1-1.2 2.8 0.2v1.2c6.1-0.4 11.2-6.1 11.8-13.3l-1-0.1 0.2-3.3 2.8 0.1-0.2 3.4-1-0.1c-0.6 6.6-4.6 11.9-9.8 13.6l8.6 0.6c0.1-0.5 0.5-0.8 0.9-0.8 0.5 0.1 0.9 0.6 0.9 1.3 0 0.6-0.5 1.1-1 1-0.4 0-0.8-0.4-0.9-0.8l-11.3-0.7q0 0-0.1 0v1.2l-2.8-0.1v-1.3q0 0-0.1 0l-11.3-0.7c-0.1 0.4-0.5 0.8-0.9 0.7-0.6 0-1-0.5-0.9-1.2 0-0.6 0.4-1.1 1-1 0.4 0 0.7 0.3 0.9 0.8l8.5 0.5c-5-2.3-8.5-8.1-8.5-14.7zm25.8 0.6l1.3 0.1 0.1-1.5h-1.3zm-26.1-1.6h1.2l0.1-1.4-1.2-0.1z"/></svg>